<svg width="22" height="22" viewBox="0 0 22 22" xmlns="http://www.w3.org/2000/svg">
<path d="M4.45763 19.492C4.51857 20.1625 5.06711 20.65 5.73754 20.65H16.2612C16.9317 20.65 17.4802 20.1421 17.5411 19.492L18.7195 7.13989H3.2793L4.45763 19.492Z" fill="white"/>
<path d="M18.7201 3.27988H13.5801V2.62976C13.5801 1.9187 13.0113 1.34985 12.3002 1.34985H9.72009C9.00903 1.34985 8.44018 1.9187 8.44018 2.62976V3.27988H3.27991C2.56885 3.27988 2 3.84872 2 4.55979C2 5.27085 2.56885 5.83969 3.27991 5.83969H18.7201C19.4312 5.83969 20 5.27085 20 4.55979C20 3.84872 19.4312 3.27988 18.7201 3.27988Z" fill="white"/>
</svg>
